<svg width="285" height="223" viewBox="0 0 285 223" fill="none" xmlns="http://www.w3.org/2000/svg">
<g filter="url(#filter0_d_3278_2937)">
<rect x="135" y="161" width="104" height="54" rx="4" fill="#293539"/>
<rect x="135.5" y="161.5" width="103" height="53" rx="3.5" stroke="#9A9A9A"/>
</g>
<g filter="url(#filter1_d_3278_2937)">
<path d="M6 4H281V157H6V4Z" fill="#2A2A2A"/>
</g>
<g filter="url(#filter2_d_3278_2937)">
<rect x="187" y="97" width="44" height="139" rx="5.95" transform="rotate(90 187 97)" fill="#BDC8CE" shape-rendering="crispEdges"/>
<rect x="187" y="97" width="44" height="139" rx="5.95" transform="rotate(90 187 97)" stroke="#0D0D0D" stroke-width="1.7" shape-rendering="crispEdges"/>
<rect x="183.281" y="100.719" width="7.19657" height="131.562" rx="3.59828" transform="rotate(90 183.281 100.719)" fill="url(#paint0_linear_3278_2937)" stroke="#0D0D0D" stroke-width="0.6375"/>
<rect x="183.281" y="110.209" width="7.19657" height="131.562" rx="3.59828" transform="rotate(90 183.281 110.209)" fill="url(#paint1_linear_3278_2937)" stroke="#0D0D0D" stroke-width="0.6375"/>
<rect x="183.281" y="105.46" width="7.19657" height="131.562" rx="3.59828" transform="rotate(90 183.281 105.46)" fill="url(#paint2_linear_3278_2937)" stroke="#0D0D0D" stroke-width="0.6375"/>
<rect x="183.281" y="120.594" width="7.18936" height="131.562" rx="3.59468" transform="rotate(90 183.281 120.594)" fill="url(#paint3_linear_3278_2937)" stroke="#0D0D0D" stroke-width="0.6375"/>
<rect x="183.281" y="130.092" width="7.18936" height="131.562" rx="3.59468" transform="rotate(90 183.281 130.092)" fill="url(#paint4_linear_3278_2937)" stroke="#0D0D0D" stroke-width="0.6375"/>
<rect x="183.281" y="125.335" width="7.18936" height="131.562" rx="3.59468" transform="rotate(90 183.281 125.335)" fill="url(#paint5_linear_3278_2937)" stroke="#0D0D0D" stroke-width="0.6375"/>
</g>
<path d="M48 15.5V41.0177V78.4625C48 80.6923 49.8077 82.5 52.0375 82.5H256M256 82.5V37M256 82.5V181.266C256 183.496 254.192 185.303 251.963 185.303H168" stroke="url(#paint6_linear_3278_2937)" stroke-width="12" stroke-linecap="round"/>
<rect x="250.071" y="164.929" width="11.9287" height="12.3707" fill="#BBC8CF"/>
<line x1="250.071" y1="176.187" x2="262" y2="176.187" stroke="#9AAAB2" stroke-width="0.25"/>
<line x1="250.071" y1="174.522" x2="262" y2="174.522" stroke="#9AAAB2" stroke-width="0.25"/>
<line x1="250.071" y1="172.858" x2="262" y2="172.858" stroke="#9AAAB2" stroke-width="0.25"/>
<line x1="250.071" y1="166.198" x2="262" y2="166.198" stroke="#9AAAB2" stroke-width="0.25"/>
<line x1="250.071" y1="171.192" x2="262" y2="171.192" stroke="#9AAAB2" stroke-width="0.25"/>
<line x1="250.071" y1="169.528" x2="262" y2="169.528" stroke="#9AAAB2" stroke-width="0.25"/>
<line x1="250.071" y1="167.863" x2="262" y2="167.863" stroke="#9AAAB2" stroke-width="0.25"/>
<rect x="219" y="179" width="11.9287" height="12.3707" fill="#BBC8CF"/>
<line x1="219" y1="190.258" x2="230.929" y2="190.258" stroke="#9AAAB2" stroke-width="0.25"/>
<line x1="219" y1="188.594" x2="230.929" y2="188.594" stroke="#9AAAB2" stroke-width="0.25"/>
<line x1="219" y1="186.929" x2="230.929" y2="186.929" stroke="#9AAAB2" stroke-width="0.25"/>
<line x1="219" y1="180.27" x2="230.929" y2="180.27" stroke="#9AAAB2" stroke-width="0.25"/>
<line x1="219" y1="185.264" x2="230.929" y2="185.264" stroke="#9AAAB2" stroke-width="0.25"/>
<line x1="219" y1="183.599" x2="230.929" y2="183.599" stroke="#9AAAB2" stroke-width="0.25"/>
<line x1="219" y1="181.934" x2="230.929" y2="181.934" stroke="#9AAAB2" stroke-width="0.25"/>
<rect x="179" y="179" width="11.9287" height="12.3707" fill="#BBC8CF"/>
<line x1="179" y1="190.258" x2="190.929" y2="190.258" stroke="#9AAAB2" stroke-width="0.25"/>
<line x1="179" y1="188.594" x2="190.929" y2="188.594" stroke="#9AAAB2" stroke-width="0.25"/>
<line x1="179" y1="186.929" x2="190.929" y2="186.929" stroke="#9AAAB2" stroke-width="0.25"/>
<line x1="179" y1="180.27" x2="190.929" y2="180.27" stroke="#9AAAB2" stroke-width="0.25"/>
<line x1="179" y1="185.264" x2="190.929" y2="185.264" stroke="#9AAAB2" stroke-width="0.25"/>
<line x1="179" y1="183.599" x2="190.929" y2="183.599" stroke="#9AAAB2" stroke-width="0.25"/>
<line x1="179" y1="181.934" x2="190.929" y2="181.934" stroke="#9AAAB2" stroke-width="0.25"/>
<rect x="250.071" y="135" width="11.9287" height="12.3707" fill="#BBC8CF"/>
<line x1="250.071" y1="146.258" x2="262" y2="146.258" stroke="#9AAAB2" stroke-width="0.25"/>
<line x1="250.071" y1="144.594" x2="262" y2="144.594" stroke="#9AAAB2" stroke-width="0.25"/>
<line x1="250.071" y1="142.929" x2="262" y2="142.929" stroke="#9AAAB2" stroke-width="0.25"/>
<line x1="250.071" y1="136.27" x2="262" y2="136.27" stroke="#9AAAB2" stroke-width="0.25"/>
<line x1="250.071" y1="141.264" x2="262" y2="141.264" stroke="#9AAAB2" stroke-width="0.25"/>
<line x1="250.071" y1="139.599" x2="262" y2="139.599" stroke="#9AAAB2" stroke-width="0.25"/>
<line x1="250.071" y1="137.934" x2="262" y2="137.934" stroke="#9AAAB2" stroke-width="0.25"/>
<rect x="250.071" y="77" width="11.9287" height="12.3707" fill="#BBC8CF"/>
<line x1="250.071" y1="88.2583" x2="262" y2="88.2583" stroke="#9AAAB2" stroke-width="0.25"/>
<line x1="250.071" y1="86.5938" x2="262" y2="86.5938" stroke="#9AAAB2" stroke-width="0.25"/>
<line x1="250.071" y1="84.9292" x2="262" y2="84.9292" stroke="#9AAAB2" stroke-width="0.25"/>
<line x1="250.071" y1="78.2695" x2="262" y2="78.2695" stroke="#9AAAB2" stroke-width="0.25"/>
<line x1="250.071" y1="83.2637" x2="262" y2="83.2637" stroke="#9AAAB2" stroke-width="0.25"/>
<line x1="250.071" y1="81.5991" x2="262" y2="81.5991" stroke="#9AAAB2" stroke-width="0.25"/>
<line x1="250.071" y1="79.9341" x2="262" y2="79.9341" stroke="#9AAAB2" stroke-width="0.25"/>
<rect x="250.071" y="104" width="11.9287" height="12.3707" fill="#BBC8CF"/>
<line x1="250.071" y1="115.258" x2="262" y2="115.258" stroke="#9AAAB2" stroke-width="0.25"/>
<line x1="250.071" y1="113.594" x2="262" y2="113.594" stroke="#9AAAB2" stroke-width="0.25"/>
<line x1="250.071" y1="111.929" x2="262" y2="111.929" stroke="#9AAAB2" stroke-width="0.25"/>
<line x1="250.071" y1="105.27" x2="262" y2="105.27" stroke="#9AAAB2" stroke-width="0.25"/>
<line x1="250.071" y1="110.264" x2="262" y2="110.264" stroke="#9AAAB2" stroke-width="0.25"/>
<line x1="250.071" y1="108.599" x2="262" y2="108.599" stroke="#9AAAB2" stroke-width="0.25"/>
<line x1="250.071" y1="106.934" x2="262" y2="106.934" stroke="#9AAAB2" stroke-width="0.25"/>
<rect x="219" y="77" width="11.9287" height="11.5" fill="#BBC8CF"/>
<line x1="219" y1="87.4565" x2="230.929" y2="87.4565" stroke="#9AAAB2" stroke-width="0.25"/>
<line x1="219" y1="85.9097" x2="230.929" y2="85.9097" stroke="#9AAAB2" stroke-width="0.25"/>
<line x1="219" y1="84.3623" x2="230.929" y2="84.3623" stroke="#9AAAB2" stroke-width="0.25"/>
<line x1="219" y1="78.1714" x2="230.929" y2="78.1714" stroke="#9AAAB2" stroke-width="0.25"/>
<line x1="219" y1="82.814" x2="230.929" y2="82.814" stroke="#9AAAB2" stroke-width="0.25"/>
<line x1="219" y1="81.2666" x2="230.929" y2="81.2666" stroke="#9AAAB2" stroke-width="0.25"/>
<line x1="219" y1="79.7192" x2="230.929" y2="79.7192" stroke="#9AAAB2" stroke-width="0.25"/>
<rect x="183" y="77" width="11.9287" height="11.5" fill="#BBC8CF"/>
<line x1="183" y1="87.4565" x2="194.929" y2="87.4565" stroke="#9AAAB2" stroke-width="0.25"/>
<line x1="183" y1="85.9097" x2="194.929" y2="85.9097" stroke="#9AAAB2" stroke-width="0.25"/>
<line x1="183" y1="84.3623" x2="194.929" y2="84.3623" stroke="#9AAAB2" stroke-width="0.25"/>
<line x1="183" y1="78.1714" x2="194.929" y2="78.1714" stroke="#9AAAB2" stroke-width="0.25"/>
<line x1="183" y1="82.814" x2="194.929" y2="82.814" stroke="#9AAAB2" stroke-width="0.25"/>
<line x1="183" y1="81.2666" x2="194.929" y2="81.2666" stroke="#9AAAB2" stroke-width="0.25"/>
<line x1="183" y1="79.7192" x2="194.929" y2="79.7192" stroke="#9AAAB2" stroke-width="0.25"/>
<rect x="146" y="77" width="11.9287" height="11.5" fill="#BBC8CF"/>
<line x1="146" y1="87.4565" x2="157.929" y2="87.4565" stroke="#9AAAB2" stroke-width="0.25"/>
<line x1="146" y1="85.9097" x2="157.929" y2="85.9097" stroke="#9AAAB2" stroke-width="0.25"/>
<line x1="146" y1="84.3623" x2="157.929" y2="84.3623" stroke="#9AAAB2" stroke-width="0.25"/>
<line x1="146" y1="78.1714" x2="157.929" y2="78.1714" stroke="#9AAAB2" stroke-width="0.25"/>
<line x1="146" y1="82.814" x2="157.929" y2="82.814" stroke="#9AAAB2" stroke-width="0.25"/>
<line x1="146" y1="81.2666" x2="157.929" y2="81.2666" stroke="#9AAAB2" stroke-width="0.25"/>
<line x1="146" y1="79.7192" x2="157.929" y2="79.7192" stroke="#9AAAB2" stroke-width="0.25"/>
<rect x="109" y="77" width="11.9287" height="11.5" fill="#BBC8CF"/>
<line x1="109" y1="87.4565" x2="120.929" y2="87.4565" stroke="#9AAAB2" stroke-width="0.25"/>
<line x1="109" y1="85.9097" x2="120.929" y2="85.9097" stroke="#9AAAB2" stroke-width="0.25"/>
<line x1="109" y1="84.3623" x2="120.929" y2="84.3623" stroke="#9AAAB2" stroke-width="0.25"/>
<line x1="109" y1="78.1714" x2="120.929" y2="78.1714" stroke="#9AAAB2" stroke-width="0.25"/>
<line x1="109" y1="82.814" x2="120.929" y2="82.814" stroke="#9AAAB2" stroke-width="0.25"/>
<line x1="109" y1="81.2666" x2="120.929" y2="81.2666" stroke="#9AAAB2" stroke-width="0.25"/>
<line x1="109" y1="79.7192" x2="120.929" y2="79.7192" stroke="#9AAAB2" stroke-width="0.25"/>
<rect x="72" y="77" width="11.9287" height="11.5" fill="#BBC8CF"/>
<line x1="72" y1="87.4565" x2="83.9287" y2="87.4565" stroke="#9AAAB2" stroke-width="0.25"/>
<line x1="72" y1="85.9097" x2="83.9287" y2="85.9097" stroke="#9AAAB2" stroke-width="0.25"/>
<line x1="72" y1="84.3623" x2="83.9287" y2="84.3623" stroke="#9AAAB2" stroke-width="0.25"/>
<line x1="72" y1="78.1714" x2="83.9287" y2="78.1714" stroke="#9AAAB2" stroke-width="0.25"/>
<line x1="72" y1="82.814" x2="83.9287" y2="82.814" stroke="#9AAAB2" stroke-width="0.25"/>
<line x1="72" y1="81.2666" x2="83.9287" y2="81.2666" stroke="#9AAAB2" stroke-width="0.25"/>
<line x1="72" y1="79.7192" x2="83.9287" y2="79.7192" stroke="#9AAAB2" stroke-width="0.25"/>
<rect x="42" y="55" width="11.9287" height="11.5" fill="#BBC8CF"/>
<line x1="42" y1="65.4565" x2="53.9287" y2="65.4565" stroke="#9AAAB2" stroke-width="0.25"/>
<line x1="42" y1="63.9097" x2="53.9287" y2="63.9097" stroke="#9AAAB2" stroke-width="0.25"/>
<line x1="42" y1="62.3623" x2="53.9287" y2="62.3623" stroke="#9AAAB2" stroke-width="0.25"/>
<line x1="42" y1="56.1714" x2="53.9287" y2="56.1714" stroke="#9AAAB2" stroke-width="0.25"/>
<line x1="42" y1="60.814" x2="53.9287" y2="60.814" stroke="#9AAAB2" stroke-width="0.25"/>
<line x1="42" y1="59.2666" x2="53.9287" y2="59.2666" stroke="#9AAAB2" stroke-width="0.25"/>
<line x1="42" y1="57.7192" x2="53.9287" y2="57.7192" stroke="#9AAAB2" stroke-width="0.25"/>
<g filter="url(#filter3_d_3278_2937)">
<rect x="134" y="20" width="35" height="111" rx="5.95" transform="rotate(90 134 20)" fill="#BDC8CE" shape-rendering="crispEdges"/>
<rect x="134" y="20" width="35" height="111" rx="5.95" transform="rotate(90 134 20)" stroke="#0D0D0D" stroke-width="1.7" shape-rendering="crispEdges"/>
<rect x="130.281" y="23.7187" width="5.16175" height="103.562" rx="2.58087" transform="rotate(90 130.281 23.7187)" fill="url(#paint7_linear_3278_2937)" stroke="#0D0D0D" stroke-width="0.6375"/>
<rect x="130.281" y="30.744" width="5.16175" height="103.562" rx="2.58087" transform="rotate(90 130.281 30.744)" fill="url(#paint8_linear_3278_2937)" stroke="#0D0D0D" stroke-width="0.6375"/>
<rect x="130.281" y="27.2289" width="5.16175" height="103.562" rx="2.58087" transform="rotate(90 130.281 27.2289)" fill="url(#paint9_linear_3278_2937)" stroke="#0D0D0D" stroke-width="0.6375"/>
<rect x="130.281" y="39.0937" width="5.15639" height="103.562" rx="2.5782" transform="rotate(90 130.281 39.0937)" fill="url(#paint10_linear_3278_2937)" stroke="#0D0D0D" stroke-width="0.6375"/>
<rect x="130.281" y="46.1244" width="5.15639" height="103.562" rx="2.5782" transform="rotate(90 130.281 46.1244)" fill="url(#paint11_linear_3278_2937)" stroke="#0D0D0D" stroke-width="0.6375"/>
<rect x="130.281" y="42.6034" width="5.15639" height="103.562" rx="2.5782" transform="rotate(90 130.281 42.6034)" fill="url(#paint12_linear_3278_2937)" stroke="#0D0D0D" stroke-width="0.6375"/>
</g>
<path d="M276.749 155.902C277.715 155.902 278.499 155.181 278.499 154.292L278.499 72.0936L187.001 72.0937C185.62 72.0937 184.5 71.0642 184.5 69.7944C184.5 68.5245 185.62 67.4951 187.001 67.4951L278.499 67.4951L278.499 7.60991C278.499 6.72102 277.715 6.00041 276.748 6.00041L8.67574 6.00044C7.70903 6.00044 6.92537 6.72105 6.92537 7.60993L6.92538 67.4951L137.996 67.4951C139.377 67.4951 140.497 68.5245 140.497 69.7944C140.497 71.0642 139.377 72.0937 137.996 72.0937L6.92538 72.0936L6.92538 155.901L237.999 155.901C239.38 155.901 240.5 156.93 240.5 158.2C240.5 159.47 239.38 160.5 237.999 160.5L1.92426 160.5L1.92427 7.60993C1.92427 4.18134 4.94698 1.4019 8.67574 1.40189L276.748 1.40187C280.477 1.40187 283.5 4.18129 283.5 7.60991L283.5 154.292C283.5 157.721 280.477 160.5 276.749 160.5L267.501 160.5C266.12 160.5 265 159.471 265 158.201C265 156.931 266.12 155.902 267.501 155.902L276.749 155.902Z" fill="#586E73" stroke="#1C4B68" stroke-width="2" stroke-linecap="round" stroke-linejoin="round"/>
<path d="M193 17.25H244C247.176 17.25 249.75 19.8244 249.75 23V54C249.75 57.1756 247.176 59.75 244 59.75H193C189.824 59.75 187.25 57.1756 187.25 54V23C187.25 19.8244 189.824 17.25 193 17.25Z" fill="#303C3F" stroke="white" stroke-width="0.5"/>
<g filter="url(#filter4_d_3278_2937)">
<rect x="202.37" y="26.1912" width="8.94911" height="23.6167" rx="1.46432" fill="url(#paint13_linear_3278_2937)" stroke="#1A4B69" stroke-width="0.383331"/>
<rect x="225.589" y="26.1912" width="8.94911" height="23.6167" rx="1.46432" fill="url(#paint14_linear_3278_2937)" stroke="#1A4B69" stroke-width="0.383331"/>
<path d="M195.476 39.7419V39.7419C195.213 39.7431 194.999 39.5303 194.999 39.2674L194.999 37.3057C194.999 37.0421 195.212 36.828 195.476 36.8267V36.8267" stroke="#354853" stroke-width="1.10399" stroke-linecap="round" stroke-linejoin="round"/>
<path d="M241.524 39.7419V39.7419C241.787 39.7431 242.001 39.5303 242.001 39.2674L242.001 37.3057C242.001 37.0421 241.788 36.828 241.524 36.8267V36.8267" stroke="#354853" stroke-width="1.10399" stroke-linecap="round" stroke-linejoin="round"/>
<mask id="path-121-inside-1_3278_2937" fill="white">
<path d="M236.921 29.7788C239.464 29.7789 241.526 33.5906 241.526 38.2925C241.526 42.9943 239.464 46.8061 236.921 46.8062L236.919 46.8052L236.919 46.8062L200.081 46.8062L200.081 46.8052C197.538 46.8031 195.478 42.9932 195.478 38.2925C195.478 33.5918 197.538 29.7809 200.081 29.7788L236.921 29.7788Z"/>
</mask>
<path d="M236.921 29.7788C239.464 29.7789 241.526 33.5906 241.526 38.2925C241.526 42.9943 239.464 46.8061 236.921 46.8062L236.919 46.8052L236.919 46.8062L200.081 46.8062L200.081 46.8052C197.538 46.8031 195.478 42.9932 195.478 38.2925C195.478 33.5918 197.538 29.7809 200.081 29.7788L236.921 29.7788Z" fill="url(#paint15_linear_3278_2937)"/>
<path d="M236.921 29.7788L236.921 29.0121H236.921L236.921 29.7788ZM241.526 38.2925L242.293 38.2925V38.2925H241.526ZM236.921 46.8062L236.578 47.4919L236.74 47.5728L236.921 47.5728L236.921 46.8062ZM236.919 46.8052L237.262 46.1195L236.152 45.5647L236.152 46.8052H236.919ZM236.919 46.8062L236.919 47.5728H237.686L237.686 46.8062H236.919ZM200.081 46.8062H199.314L199.314 47.5728H200.081L200.081 46.8062ZM200.081 46.8052H200.848L200.848 46.0391L200.082 46.0385L200.081 46.8052ZM195.478 38.2925L194.711 38.2925L194.711 38.2925L195.478 38.2925ZM200.081 29.7788L200.081 29.0121L200.08 29.0121L200.081 29.7788ZM236.921 29.7788L236.921 30.5455C237.777 30.5455 238.725 31.1986 239.503 32.6372C240.265 34.0455 240.76 36.0436 240.76 38.2925H241.526H242.293C242.293 35.8395 241.757 33.5808 240.852 31.9077C239.963 30.265 238.608 29.0122 236.921 29.0121L236.921 29.7788ZM241.526 38.2925L240.76 38.2925C240.76 40.5413 240.265 42.5394 239.503 43.9477C238.725 45.3864 237.777 46.0395 236.921 46.0395L236.921 46.8062L236.921 47.5728C238.608 47.5728 239.963 46.3199 240.852 44.6772C241.757 43.0041 242.293 40.7454 242.293 38.2925L241.526 38.2925ZM236.921 46.8062L237.264 46.1204L237.262 46.1195L236.919 46.8052L236.576 47.4909L236.578 47.4919L236.921 46.8062ZM236.919 46.8052H236.152L236.152 46.8062H236.919H237.686L237.686 46.8052H236.919ZM236.919 46.8062L236.919 46.0395L200.081 46.0395L200.081 46.8062L200.081 47.5728L236.919 47.5728L236.919 46.8062ZM200.081 46.8062H200.848L200.848 46.8052H200.081H199.314L199.314 46.8062H200.081ZM200.081 46.8052L200.082 46.0385C199.225 46.0378 198.278 45.3844 197.5 43.9461C196.739 42.5381 196.244 40.5408 196.244 38.2925L195.478 38.2925L194.711 38.2925C194.711 40.7448 195.247 43.0028 196.151 44.6755C197.04 46.3179 198.394 47.5705 200.08 47.5718L200.081 46.8052ZM195.478 38.2925H196.244C196.244 36.0441 196.739 34.0465 197.5 32.6383C198.278 31.1997 199.225 30.5462 200.082 30.5455L200.081 29.7788L200.08 29.0121C198.394 29.0135 197.04 30.2665 196.151 31.909C195.247 33.5819 194.711 35.8401 194.711 38.2925H195.478ZM200.081 29.7788L200.081 30.5455L236.921 30.5455L236.921 29.7788L236.921 29.0121L200.081 29.0121L200.081 29.7788Z" fill="#1A4B69" mask="url(#path-121-inside-1_3278_2937)"/>
<path d="M200.306 30.5923L200.306 46.018" stroke="#34474D" stroke-opacity="0.5" stroke-width="0.275998"/>
<path d="M236.702 30.5923L236.702 46.018" stroke="#34474D" stroke-opacity="0.5" stroke-width="0.275998"/>
<path d="M199.64 43.5482V43.5482C200.777 43.5482 201.7 42.6259 201.7 41.4883L201.7 30.6587C201.7 29.4392 202.688 28.4507 203.908 28.4507L234.417 28.4507C234.926 28.4507 235.339 28.8635 235.339 29.3727V29.3727" stroke="#354853" stroke-width="1.10399" stroke-linecap="round" stroke-linejoin="round"/>
<path d="M232.473 36.7666C233.298 36.7669 233.972 37.444 233.972 38.2861C233.972 39.1283 233.298 39.8054 232.473 39.8057C231.647 39.8057 230.973 39.1284 230.973 38.2861C230.973 37.4438 231.647 36.7666 232.473 36.7666Z" fill="#88999A" stroke="#40565F" stroke-width="0.551996"/>
<ellipse cx="232.471" cy="38.2856" rx="0.523335" ry="0.529211" fill="#1A4B69"/>
<rect x="215.592" y="43.4313" width="10.2846" height="10.2785" rx="0.976215" transform="rotate(-180 215.592 43.4313)" fill="#72898A" fill-opacity="0.7" stroke="#1A4B69" stroke-width="0.255554"/>
<rect x="222.236" y="40.8761" width="5.17108" height="5.16794" rx="0.976215" transform="rotate(-180 222.236 40.8761)" fill="#788C8D" fill-opacity="0.5" stroke="#1A4B69" stroke-width="0.255554"/>
<mask id="path-130-inside-2_3278_2937" fill="white">
<path d="M206.654 39.015C206.654 38.8835 206.761 38.7769 206.892 38.7769V38.7769C207.024 38.7769 207.131 38.8835 207.131 39.015L207.131 41.9044C207.131 42.0359 207.024 42.1426 206.892 42.1426V42.1426C206.761 42.1426 206.654 42.0359 206.654 41.9044L206.654 39.015Z"/>
</mask>
<path d="M206.654 39.015C206.654 38.8835 206.761 38.7769 206.892 38.7769V38.7769C207.024 38.7769 207.131 38.8835 207.131 39.015L207.131 41.9044C207.131 42.0359 207.024 42.1426 206.892 42.1426V42.1426C206.761 42.1426 206.654 42.0359 206.654 41.9044L206.654 39.015Z" fill="#41565F"/>
<path d="M206.654 38.9639C206.654 38.8041 206.784 38.6746 206.944 38.6746C207.103 38.6746 207.233 38.8041 207.233 38.9639L207.028 39.015C207.028 38.9399 206.968 38.8791 206.892 38.8791C206.761 38.8791 206.654 38.9399 206.654 39.015L206.654 38.9639ZM207.131 42.1426L206.654 42.1426L207.131 42.1426ZM206.654 42.1426L206.654 38.7769L206.654 42.1426ZM206.944 38.6746C207.103 38.6746 207.233 38.8041 207.233 38.9639L207.233 41.8022C207.233 41.9902 207.08 42.1426 206.892 42.1426C206.968 42.1426 207.028 42.0359 207.028 41.9044L207.028 39.015C207.028 38.9399 206.968 38.8791 206.892 38.8791L206.944 38.6746Z" fill="#1A4B69" mask="url(#path-130-inside-2_3278_2937)"/>
<mask id="path-132-inside-3_3278_2937" fill="white">
<path d="M206.654 34.6996C206.654 34.5681 206.761 34.4614 206.892 34.4614V34.4614C207.024 34.4614 207.131 34.5681 207.131 34.6996L207.131 37.589C207.131 37.7205 207.024 37.8271 206.892 37.8271V37.8271C206.761 37.8271 206.654 37.7205 206.654 37.589L206.654 34.6996Z"/>
</mask>
<path d="M206.654 34.6996C206.654 34.5681 206.761 34.4614 206.892 34.4614V34.4614C207.024 34.4614 207.131 34.5681 207.131 34.6996L207.131 37.589C207.131 37.7205 207.024 37.8271 206.892 37.8271V37.8271C206.761 37.8271 206.654 37.7205 206.654 37.589L206.654 34.6996Z" fill="#41565F"/>
<path d="M206.654 34.6485C206.654 34.4887 206.784 34.3592 206.944 34.3592C207.103 34.3592 207.233 34.4887 207.233 34.6485L207.028 34.6996C207.028 34.6245 206.968 34.5636 206.892 34.5636C206.761 34.5636 206.654 34.6245 206.654 34.6996L206.654 34.6485ZM207.131 37.8271L206.654 37.8271L207.131 37.8271ZM206.654 37.8271L206.654 34.4614L206.654 37.8271ZM206.944 34.3592C207.103 34.3592 207.233 34.4887 207.233 34.6485L207.233 37.4868C207.233 37.6747 207.08 37.8271 206.892 37.8271C206.968 37.8271 207.028 37.7205 207.028 37.589L207.028 34.6996C207.028 34.6245 206.968 34.5636 206.892 34.5636L206.944 34.3592Z" fill="#1A4B69" mask="url(#path-132-inside-3_3278_2937)"/>
<mask id="path-134-inside-4_3278_2937" fill="white">
<path d="M207.664 39.015C207.664 38.8835 207.771 38.7769 207.902 38.7769V38.7769C208.034 38.7769 208.14 38.8835 208.14 39.015L208.14 41.9044C208.14 42.0359 208.034 42.1426 207.902 42.1426V42.1426C207.771 42.1426 207.664 42.0359 207.664 41.9044L207.664 39.015Z"/>
</mask>
<path d="M207.664 39.015C207.664 38.8835 207.771 38.7769 207.902 38.7769V38.7769C208.034 38.7769 208.14 38.8835 208.14 39.015L208.14 41.9044C208.14 42.0359 208.034 42.1426 207.902 42.1426V42.1426C207.771 42.1426 207.664 42.0359 207.664 41.9044L207.664 39.015Z" fill="#41565F"/>
<path d="M207.664 38.9639C207.664 38.8041 207.794 38.6746 207.953 38.6746C208.113 38.6746 208.243 38.8041 208.243 38.9639L208.038 39.015C208.038 38.9399 207.977 38.8791 207.902 38.8791C207.771 38.8791 207.664 38.9399 207.664 39.015L207.664 38.9639ZM208.14 42.1426L207.664 42.1426L208.14 42.1426ZM207.664 42.1426L207.664 38.7769L207.664 42.1426ZM207.953 38.6746C208.113 38.6746 208.243 38.8041 208.243 38.9639L208.243 41.8022C208.243 41.9902 208.09 42.1426 207.902 42.1426C207.977 42.1426 208.038 42.0359 208.038 41.9044L208.038 39.015C208.038 38.9399 207.977 38.8791 207.902 38.8791L207.953 38.6746Z" fill="#1A4B69" mask="url(#path-134-inside-4_3278_2937)"/>
<mask id="path-136-inside-5_3278_2937" fill="white">
<path d="M207.664 34.6996C207.664 34.5681 207.771 34.4614 207.902 34.4614V34.4614C208.034 34.4614 208.14 34.5681 208.14 34.6996L208.14 37.589C208.14 37.7205 208.034 37.8271 207.902 37.8271V37.8271C207.771 37.8271 207.664 37.7205 207.664 37.589L207.664 34.6996Z"/>
</mask>
<path d="M207.664 34.6996C207.664 34.5681 207.771 34.4614 207.902 34.4614V34.4614C208.034 34.4614 208.14 34.5681 208.14 34.6996L208.14 37.589C208.14 37.7205 208.034 37.8271 207.902 37.8271V37.8271C207.771 37.8271 207.664 37.7205 207.664 37.589L207.664 34.6996Z" fill="#41565F"/>
<path d="M207.664 34.6485C207.664 34.4887 207.794 34.3592 207.953 34.3592H207.953C208.113 34.3592 208.243 34.4887 208.243 34.6485L208.038 34.6996C208.038 34.6245 207.977 34.5636 207.902 34.5636H207.902C207.771 34.5636 207.664 34.6245 207.664 34.6996L207.664 34.6485ZM208.14 37.8271L207.664 37.8271L208.14 37.8271ZM207.664 37.8271L207.664 34.4614L207.664 37.8271ZM207.953 34.3592C208.113 34.3592 208.243 34.4887 208.243 34.6485L208.243 37.4868C208.243 37.6747 208.09 37.8271 207.902 37.8271H207.902C207.977 37.8271 208.038 37.7205 208.038 37.589L208.038 34.6996C208.038 34.6245 207.977 34.5636 207.902 34.5636L207.953 34.3592Z" fill="#1A4B69" mask="url(#path-136-inside-5_3278_2937)"/>
<mask id="path-138-inside-6_3278_2937" fill="white">
<path d="M208.678 39.015C208.678 38.8835 208.785 38.7769 208.916 38.7769V38.7769C209.048 38.7769 209.155 38.8835 209.155 39.015L209.155 41.9044C209.155 42.0359 209.048 42.1426 208.916 42.1426V42.1426C208.785 42.1426 208.678 42.0359 208.678 41.9044L208.678 39.015Z"/>
</mask>
<path d="M208.678 39.015C208.678 38.8835 208.785 38.7769 208.916 38.7769V38.7769C209.048 38.7769 209.155 38.8835 209.155 39.015L209.155 41.9044C209.155 42.0359 209.048 42.1426 208.916 42.1426V42.1426C208.785 42.1426 208.678 42.0359 208.678 41.9044L208.678 39.015Z" fill="#41565F"/>
<path d="M208.678 38.9639C208.678 38.8041 208.808 38.6746 208.967 38.6746C209.127 38.6746 209.257 38.8041 209.257 38.9639L209.052 39.015C209.052 38.9399 208.991 38.8791 208.916 38.8791C208.785 38.8791 208.678 38.9399 208.678 39.015L208.678 38.9639ZM209.155 42.1426L208.678 42.1426L209.155 42.1426ZM208.678 42.1426L208.678 38.7769L208.678 42.1426ZM208.967 38.6746C209.127 38.6746 209.257 38.8041 209.257 38.9639L209.257 41.8022C209.257 41.9902 209.104 42.1426 208.916 42.1426C208.991 42.1426 209.052 42.0359 209.052 41.9044L209.052 39.015C209.052 38.9399 208.991 38.8791 208.916 38.8791L208.967 38.6746Z" fill="#1A4B69" mask="url(#path-138-inside-6_3278_2937)"/>
<mask id="path-140-inside-7_3278_2937" fill="white">
<path d="M208.678 34.6996C208.678 34.5681 208.785 34.4614 208.916 34.4614V34.4614C209.048 34.4614 209.155 34.5681 209.155 34.6996L209.155 37.589C209.155 37.7205 209.048 37.8271 208.916 37.8271V37.8271C208.785 37.8271 208.678 37.7205 208.678 37.589L208.678 34.6996Z"/>
</mask>
<path d="M208.678 34.6996C208.678 34.5681 208.785 34.4614 208.916 34.4614V34.4614C209.048 34.4614 209.155 34.5681 209.155 34.6996L209.155 37.589C209.155 37.7205 209.048 37.8271 208.916 37.8271V37.8271C208.785 37.8271 208.678 37.7205 208.678 37.589L208.678 34.6996Z" fill="#41565F"/>
<path d="M208.678 34.6485C208.678 34.4887 208.808 34.3592 208.967 34.3592C209.127 34.3592 209.257 34.4887 209.257 34.6485L209.052 34.6996C209.052 34.6245 208.991 34.5636 208.916 34.5636C208.785 34.5636 208.678 34.6245 208.678 34.6996L208.678 34.6485ZM209.155 37.8271L208.678 37.8271L209.155 37.8271ZM208.678 37.8271L208.678 34.4614L208.678 37.8271ZM208.967 34.3592C209.127 34.3592 209.257 34.4887 209.257 34.6485L209.257 37.4868C209.257 37.6747 209.104 37.8271 208.916 37.8271C208.991 37.8271 209.052 37.7205 209.052 37.589L209.052 34.6996C209.052 34.6245 208.991 34.5636 208.916 34.5636L208.967 34.3592Z" fill="#1A4B69" mask="url(#path-140-inside-7_3278_2937)"/>
<mask id="path-142-inside-8_3278_2937" fill="white">
<path d="M209.688 39.015C209.688 38.8835 209.795 38.7769 209.926 38.7769V38.7769C210.058 38.7769 210.164 38.8835 210.164 39.015L210.164 41.9044C210.164 42.0359 210.058 42.1426 209.926 42.1426V42.1426C209.795 42.1426 209.688 42.0359 209.688 41.9044L209.688 39.015Z"/>
</mask>
<path d="M209.688 39.015C209.688 38.8835 209.795 38.7769 209.926 38.7769V38.7769C210.058 38.7769 210.164 38.8835 210.164 39.015L210.164 41.9044C210.164 42.0359 210.058 42.1426 209.926 42.1426V42.1426C209.795 42.1426 209.688 42.0359 209.688 41.9044L209.688 39.015Z" fill="#41565F"/>
<path d="M209.688 38.9639C209.688 38.8041 209.817 38.6746 209.977 38.6746H209.977C210.137 38.6746 210.267 38.8041 210.267 38.9639L210.062 39.015C210.062 38.9399 210.001 38.8791 209.926 38.8791H209.926C209.795 38.8791 209.688 38.9399 209.688 39.015L209.688 38.9639ZM210.164 42.1426L209.688 42.1426L210.164 42.1426ZM209.688 42.1426L209.688 38.7769L209.688 42.1426ZM209.977 38.6746C210.137 38.6746 210.267 38.8041 210.267 38.9639L210.267 41.8022C210.267 41.9902 210.114 42.1426 209.926 42.1426H209.926C210.001 42.1426 210.062 42.0359 210.062 41.9044L210.062 39.015C210.062 38.9399 210.001 38.8791 209.926 38.8791L209.977 38.6746Z" fill="#1A4B69" mask="url(#path-142-inside-8_3278_2937)"/>
<mask id="path-144-inside-9_3278_2937" fill="white">
<path d="M209.692 34.6996C209.692 34.5681 209.799 34.4614 209.93 34.4614V34.4614C210.062 34.4614 210.168 34.5681 210.168 34.6996L210.168 37.589C210.168 37.7205 210.062 37.8271 209.93 37.8271V37.8271C209.799 37.8271 209.692 37.7205 209.692 37.589L209.692 34.6996Z"/>
</mask>
<path d="M209.692 34.6996C209.692 34.5681 209.799 34.4614 209.93 34.4614V34.4614C210.062 34.4614 210.168 34.5681 210.168 34.6996L210.168 37.589C210.168 37.7205 210.062 37.8271 209.93 37.8271V37.8271C209.799 37.8271 209.692 37.7205 209.692 37.589L209.692 34.6996Z" fill="#41565F"/>
<path d="M209.692 34.6485C209.692 34.4887 209.821 34.3592 209.981 34.3592H209.981C210.141 34.3592 210.27 34.4887 210.27 34.6485L210.066 34.6996C210.066 34.6245 210.005 34.5636 209.93 34.5636H209.93C209.799 34.5636 209.692 34.6245 209.692 34.6996L209.692 34.6485ZM210.168 37.8271L209.692 37.8271L210.168 37.8271ZM209.692 37.8271L209.692 34.4614L209.692 37.8271ZM209.981 34.3592C210.141 34.3592 210.27 34.4887 210.27 34.6485L210.27 37.4868C210.27 37.6747 210.118 37.8271 209.93 37.8271H209.93C210.005 37.8271 210.066 37.7205 210.066 37.589L210.066 34.6996C210.066 34.6245 210.005 34.5636 209.93 34.5636L209.981 34.3592Z" fill="#1A4B69" mask="url(#path-144-inside-9_3278_2937)"/>
<mask id="path-146-inside-10_3278_2937" fill="white">
<path d="M210.702 39.015C210.702 38.8835 210.808 38.7769 210.94 38.7769V38.7769C211.071 38.7769 211.178 38.8835 211.178 39.015L211.178 41.9044C211.178 42.0359 211.071 42.1426 210.94 42.1426V42.1426C210.808 42.1426 210.702 42.0359 210.702 41.9044L210.702 39.015Z"/>
</mask>
<path d="M210.702 39.015C210.702 38.8835 210.808 38.7769 210.94 38.7769V38.7769C211.071 38.7769 211.178 38.8835 211.178 39.015L211.178 41.9044C211.178 42.0359 211.071 42.1426 210.94 42.1426V42.1426C210.808 42.1426 210.702 42.0359 210.702 41.9044L210.702 39.015Z" fill="#41565F"/>
<path d="M210.702 38.9639C210.702 38.8041 210.831 38.6746 210.991 38.6746H210.991C211.151 38.6746 211.28 38.8041 211.28 38.9639L211.076 39.015C211.076 38.9399 211.015 38.8791 210.94 38.8791H210.94C210.808 38.8791 210.702 38.9399 210.702 39.015L210.702 38.9639ZM211.178 42.1426L210.702 42.1426L211.178 42.1426ZM210.702 42.1426L210.702 38.7769L210.702 42.1426ZM210.991 38.6746C211.151 38.6746 211.28 38.8041 211.28 38.9639L211.28 41.8022C211.28 41.9902 211.128 42.1426 210.94 42.1426H210.94C211.015 42.1426 211.076 42.0359 211.076 41.9044L211.076 39.015C211.076 38.9399 211.015 38.8791 210.94 38.8791L210.991 38.6746Z" fill="#1A4B69" mask="url(#path-146-inside-10_3278_2937)"/>
<mask id="path-148-inside-11_3278_2937" fill="white">
<path d="M210.702 34.6996C210.702 34.5681 210.808 34.4614 210.94 34.4614V34.4614C211.071 34.4614 211.178 34.5681 211.178 34.6996L211.178 37.589C211.178 37.7205 211.071 37.8271 210.94 37.8271V37.8271C210.808 37.8271 210.702 37.7205 210.702 37.589L210.702 34.6996Z"/>
</mask>
<path d="M210.702 34.6996C210.702 34.5681 210.808 34.4614 210.94 34.4614V34.4614C211.071 34.4614 211.178 34.5681 211.178 34.6996L211.178 37.589C211.178 37.7205 211.071 37.8271 210.94 37.8271V37.8271C210.808 37.8271 210.702 37.7205 210.702 37.589L210.702 34.6996Z" fill="#41565F"/>
<path d="M210.702 34.6485C210.702 34.4887 210.831 34.3592 210.991 34.3592C211.151 34.3592 211.28 34.4887 211.28 34.6485L211.076 34.6996C211.076 34.6245 211.015 34.5636 210.94 34.5636C210.808 34.5636 210.702 34.6245 210.702 34.6996L210.702 34.6485ZM211.178 37.8271L210.702 37.8271L211.178 37.8271ZM210.702 37.8271L210.702 34.4614L210.702 37.8271ZM210.991 34.3592C211.151 34.3592 211.28 34.4887 211.28 34.6485L211.28 37.4868C211.28 37.6747 211.128 37.8271 210.94 37.8271C211.015 37.8271 211.076 37.7205 211.076 37.589L211.076 34.6996C211.076 34.6245 211.015 34.5636 210.94 34.5636L210.991 34.3592Z" fill="#1A4B69" mask="url(#path-148-inside-11_3278_2937)"/>
<mask id="path-150-inside-12_3278_2937" fill="white">
<path d="M211.712 39.015C211.712 38.8835 211.819 38.7769 211.95 38.7769V38.7769C212.082 38.7769 212.188 38.8835 212.188 39.015L212.188 41.9044C212.188 42.0359 212.082 42.1426 211.95 42.1426V42.1426C211.819 42.1426 211.712 42.0359 211.712 41.9044L211.712 39.015Z"/>
</mask>
<path d="M211.712 39.015C211.712 38.8835 211.819 38.7769 211.95 38.7769V38.7769C212.082 38.7769 212.188 38.8835 212.188 39.015L212.188 41.9044C212.188 42.0359 212.082 42.1426 211.95 42.1426V42.1426C211.819 42.1426 211.712 42.0359 211.712 41.9044L211.712 39.015Z" fill="#41565F"/>
<path d="M211.712 38.9639C211.712 38.8041 211.841 38.6746 212.001 38.6746C212.161 38.6746 212.29 38.8041 212.29 38.9639L212.086 39.015C212.086 38.9399 212.025 38.8791 211.95 38.8791C211.819 38.8791 211.712 38.9399 211.712 39.015L211.712 38.9639ZM212.188 42.1426L211.712 42.1426L212.188 42.1426ZM211.712 42.1426L211.712 38.7769L211.712 42.1426ZM212.001 38.6746C212.161 38.6746 212.29 38.8041 212.29 38.9639L212.29 41.8022C212.29 41.9902 212.138 42.1426 211.95 42.1426C212.025 42.1426 212.086 42.0359 212.086 41.9044L212.086 39.015C212.086 38.9399 212.025 38.8791 211.95 38.8791L212.001 38.6746Z" fill="#1A4B69" mask="url(#path-150-inside-12_3278_2937)"/>
<mask id="path-152-inside-13_3278_2937" fill="white">
<path d="M211.712 34.6996C211.712 34.5681 211.819 34.4614 211.95 34.4614V34.4614C212.082 34.4614 212.188 34.5681 212.188 34.6996L212.188 37.589C212.188 37.7205 212.082 37.8271 211.95 37.8271V37.8271C211.819 37.8271 211.712 37.7205 211.712 37.589L211.712 34.6996Z"/>
</mask>
<path d="M211.712 34.6996C211.712 34.5681 211.819 34.4614 211.95 34.4614V34.4614C212.082 34.4614 212.188 34.5681 212.188 34.6996L212.188 37.589C212.188 37.7205 212.082 37.8271 211.95 37.8271V37.8271C211.819 37.8271 211.712 37.7205 211.712 37.589L211.712 34.6996Z" fill="#41565F"/>
<path d="M211.712 34.6485C211.712 34.4887 211.841 34.3592 212.001 34.3592C212.161 34.3592 212.29 34.4887 212.29 34.6485L212.086 34.6996C212.086 34.6245 212.025 34.5636 211.95 34.5636C211.819 34.5636 211.712 34.6245 211.712 34.6996L211.712 34.6485ZM212.188 37.8271L211.712 37.8271L212.188 37.8271ZM211.712 37.8271L211.712 34.4614L211.712 37.8271ZM212.001 34.3592C212.161 34.3592 212.29 34.4887 212.29 34.6485L212.29 37.4868C212.29 37.6747 212.138 37.8271 211.95 37.8271C212.025 37.8271 212.086 37.7205 212.086 37.589L212.086 34.6996C212.086 34.6245 212.025 34.5636 211.95 34.5636L212.001 34.3592Z" fill="#1A4B69" mask="url(#path-152-inside-13_3278_2937)"/>
<mask id="path-154-inside-14_3278_2937" fill="white">
<path d="M212.726 39.015C212.726 38.8835 212.832 38.7769 212.964 38.7769V38.7769C213.095 38.7769 213.202 38.8835 213.202 39.015L213.202 41.9044C213.202 42.0359 213.095 42.1426 212.964 42.1426V42.1426C212.832 42.1426 212.726 42.0359 212.726 41.9044L212.726 39.015Z"/>
</mask>
<path d="M212.726 39.015C212.726 38.8835 212.832 38.7769 212.964 38.7769V38.7769C213.095 38.7769 213.202 38.8835 213.202 39.015L213.202 41.9044C213.202 42.0359 213.095 42.1426 212.964 42.1426V42.1426C212.832 42.1426 212.726 42.0359 212.726 41.9044L212.726 39.015Z" fill="#41565F"/>
<path d="M212.726 38.9639C212.726 38.8041 212.855 38.6746 213.015 38.6746C213.175 38.6746 213.304 38.8041 213.304 38.9639L213.1 39.015C213.1 38.9399 213.039 38.8791 212.964 38.8791C212.832 38.8791 212.726 38.9399 212.726 39.015L212.726 38.9639ZM213.202 42.1426L212.726 42.1426L213.202 42.1426ZM212.726 42.1426L212.726 38.7769L212.726 42.1426ZM213.015 38.6746C213.175 38.6746 213.304 38.8041 213.304 38.9639L213.304 41.8022C213.304 41.9902 213.152 42.1426 212.964 42.1426C213.039 42.1426 213.1 42.0359 213.1 41.9044L213.1 39.015C213.1 38.9399 213.039 38.8791 212.964 38.8791L213.015 38.6746Z" fill="#1A4B69" mask="url(#path-154-inside-14_3278_2937)"/>
<mask id="path-156-inside-15_3278_2937" fill="white">
<path d="M212.726 34.6996C212.726 34.5681 212.832 34.4614 212.964 34.4614V34.4614C213.095 34.4614 213.202 34.5681 213.202 34.6996L213.202 37.589C213.202 37.7205 213.095 37.8271 212.964 37.8271V37.8271C212.832 37.8271 212.726 37.7205 212.726 37.589L212.726 34.6996Z"/>
</mask>
<path d="M212.726 34.6996C212.726 34.5681 212.832 34.4614 212.964 34.4614V34.4614C213.095 34.4614 213.202 34.5681 213.202 34.6996L213.202 37.589C213.202 37.7205 213.095 37.8271 212.964 37.8271V37.8271C212.832 37.8271 212.726 37.7205 212.726 37.589L212.726 34.6996Z" fill="#41565F"/>
<path d="M212.726 34.6485C212.726 34.4887 212.855 34.3592 213.015 34.3592C213.175 34.3592 213.304 34.4887 213.304 34.6485L213.1 34.6996C213.1 34.6245 213.039 34.5636 212.964 34.5636C212.832 34.5636 212.726 34.6245 212.726 34.6996L212.726 34.6485ZM213.202 37.8271L212.726 37.8271L213.202 37.8271ZM212.726 37.8271L212.726 34.4614L212.726 37.8271ZM213.015 34.3592C213.175 34.3592 213.304 34.4887 213.304 34.6485L213.304 37.4868C213.304 37.6747 213.152 37.8271 212.964 37.8271C213.039 37.8271 213.1 37.7205 213.1 37.589L213.1 34.6996C213.1 34.6245 213.039 34.5636 212.964 34.5636L213.015 34.3592Z" fill="#1A4B69" mask="url(#path-156-inside-15_3278_2937)"/>
<mask id="path-158-inside-16_3278_2937" fill="white">
<path d="M213.736 39.015C213.736 38.8835 213.842 38.7769 213.974 38.7769V38.7769C214.106 38.7769 214.212 38.8835 214.212 39.015L214.212 41.9044C214.212 42.0359 214.106 42.1426 213.974 42.1426V42.1426C213.842 42.1426 213.736 42.0359 213.736 41.9044L213.736 39.015Z"/>
</mask>
<path d="M213.736 39.015C213.736 38.8835 213.842 38.7769 213.974 38.7769V38.7769C214.106 38.7769 214.212 38.8835 214.212 39.015L214.212 41.9044C214.212 42.0359 214.106 42.1426 213.974 42.1426V42.1426C213.842 42.1426 213.736 42.0359 213.736 41.9044L213.736 39.015Z" fill="#41565F"/>
<path d="M213.736 38.9639C213.736 38.8041 213.865 38.6746 214.025 38.6746C214.185 38.6746 214.314 38.8041 214.314 38.9639L214.11 39.015C214.11 38.9399 214.049 38.8791 213.974 38.8791C213.842 38.8791 213.736 38.9399 213.736 39.015L213.736 38.9639ZM214.212 42.1426L213.736 42.1426L214.212 42.1426ZM213.736 42.1426L213.736 38.7769L213.736 42.1426ZM214.025 38.6746C214.185 38.6746 214.314 38.8041 214.314 38.9639L214.314 41.8022C214.314 41.9902 214.162 42.1426 213.974 42.1426C214.049 42.1426 214.11 42.0359 214.11 41.9044L214.11 39.015C214.11 38.9399 214.049 38.8791 213.974 38.8791L214.025 38.6746Z" fill="#1A4B69" mask="url(#path-158-inside-16_3278_2937)"/>
<mask id="path-160-inside-17_3278_2937" fill="white">
<path d="M213.736 34.6996C213.736 34.5681 213.842 34.4614 213.974 34.4614V34.4614C214.106 34.4614 214.212 34.5681 214.212 34.6996L214.212 37.589C214.212 37.7205 214.106 37.8271 213.974 37.8271V37.8271C213.842 37.8271 213.736 37.7205 213.736 37.589L213.736 34.6996Z"/>
</mask>
<path d="M213.736 34.6996C213.736 34.5681 213.842 34.4614 213.974 34.4614V34.4614C214.106 34.4614 214.212 34.5681 214.212 34.6996L214.212 37.589C214.212 37.7205 214.106 37.8271 213.974 37.8271V37.8271C213.842 37.8271 213.736 37.7205 213.736 37.589L213.736 34.6996Z" fill="#41565F"/>
<path d="M213.736 34.6485C213.736 34.4887 213.865 34.3592 214.025 34.3592C214.185 34.3592 214.314 34.4887 214.314 34.6485L214.11 34.6996C214.11 34.6245 214.049 34.5636 213.974 34.5636C213.842 34.5636 213.736 34.6245 213.736 34.6996L213.736 34.6485ZM214.212 37.8271L213.736 37.8271L214.212 37.8271ZM213.736 37.8271L213.736 34.4614L213.736 37.8271ZM214.025 34.3592C214.185 34.3592 214.314 34.4887 214.314 34.6485L214.314 37.4868C214.314 37.6747 214.162 37.8271 213.974 37.8271C214.049 37.8271 214.11 37.7205 214.11 37.589L214.11 34.6996C214.11 34.6245 214.049 34.5636 213.974 34.5636L214.025 34.3592Z" fill="#1A4B69" mask="url(#path-160-inside-17_3278_2937)"/>
<path d="M219.651 37.9438C219.838 37.944 219.993 38.0983 219.993 38.2915C219.993 38.4848 219.838 38.639 219.651 38.6392C219.463 38.6392 219.308 38.4849 219.308 38.2915C219.308 38.0982 219.463 37.9438 219.651 37.9438Z" fill="#1A4B69" stroke="#40565F" stroke-width="0.275998"/>
</g>
<g filter="url(#filter5_d_3278_2937)">
<rect x="197.512" y="170.015" width="30.5716" height="38.1213" rx="4.00733" transform="rotate(90 197.512 170.015)" fill="url(#paint16_linear_3278_2937)"/>
<rect x="197.278" y="170.249" width="30.1032" height="37.6529" rx="3.77313" transform="rotate(90 197.278 170.249)" stroke="#1A4B69" stroke-width="0.468389"/>
</g>
<rect x="192.919" y="187.743" width="28.6573" height="13.4365" rx="0.588965" transform="rotate(-180 192.919 187.743)" fill="#7F9394" stroke="#1A4B69" stroke-width="0.425" stroke-linejoin="round"/>
<path d="M187.025 179.042V179.042C187.025 178.345 186.46 177.781 185.764 177.781L184.361 177.781" stroke="#40565F" stroke-width="0.400733"/>
<path d="M174.239 182.95C174.239 183.392 173.88 183.751 173.438 183.751L169.572 183.751C169.129 183.751 168.77 183.392 168.77 182.95L168.77 182.062L168.77 180.036L168.77 179.101C168.77 178.658 169.129 178.299 169.572 178.299L173.438 178.299C173.88 178.299 174.239 178.658 174.239 179.101L174.239 182.95Z" fill="#ACBBBC"/>
<path d="M168.77 182.062L168.77 182.95C168.77 183.392 169.129 183.751 169.572 183.751L173.438 183.751C173.88 183.751 174.239 183.392 174.239 182.95L174.239 179.101C174.239 178.658 173.88 178.299 173.438 178.299L169.572 178.299C169.129 178.299 168.77 178.658 168.77 179.101L168.77 180.036M168.77 182.062L167.912 182.062M168.77 182.062L168.77 180.036M168.77 180.036L167.912 180.036" stroke="#40565F" stroke-width="0.6375" stroke-linecap="round"/>
<path d="M173.11 179.975L173.11 181.848" stroke="#2F4751" stroke-width="0.6375" stroke-linecap="round" stroke-linejoin="round"/>
<path d="M171.18 179.975L171.18 181.848" stroke="#2F4751" stroke-width="0.6375" stroke-linecap="round" stroke-linejoin="round"/>
<path d="M187.419 179.032L187.132 179.032C186.575 179.032 186.125 179.492 186.125 180.06L186.125 181.988C186.125 182.556 186.575 183.016 187.132 183.016L187.419 183.016C187.817 183.016 188.139 182.687 188.139 182.282L188.139 182.233C188.139 181.854 188.439 181.547 188.81 181.547C189.181 181.547 189.482 181.854 189.482 182.233L189.482 182.706C189.482 182.877 189.618 183.016 189.786 183.016C189.953 183.016 190.089 182.877 190.089 182.706L190.089 179.342C190.089 179.171 189.953 179.032 189.786 179.032C189.618 179.032 189.482 179.171 189.482 179.342L189.482 179.815C189.482 180.194 189.181 180.501 188.81 180.501C188.439 180.501 188.139 180.194 188.139 179.815L188.139 179.767C188.139 179.361 187.817 179.032 187.419 179.032Z" fill="#ACBBBC" stroke="#40565F" stroke-width="0.400733"/>
<rect x="184.788" y="185.305" width="9.243" height="8.55558" rx="0.801465" transform="rotate(-180 184.788 185.305)" fill="#ADBBBC"/>
<path d="M181.879 180.477C181.879 180.34 181.768 180.229 181.632 180.229V180.229C181.495 180.229 181.384 180.34 181.384 180.477L181.384 185.302L181.879 185.302L181.879 180.477Z" fill="#647A82"/>
<path d="M181.632 180.464C181.625 180.464 181.618 180.469 181.618 180.477L181.618 185.067L181.645 185.067L181.645 180.477C181.644 180.47 181.639 180.464 181.632 180.464Z" stroke="#7C9091" stroke-opacity="0.3" stroke-width="0.247323"/>
<path d="M178.947 180.477C178.947 180.34 178.836 180.229 178.699 180.229V180.229C178.563 180.229 178.452 180.34 178.452 180.477L178.452 185.302L178.947 185.302L178.947 180.477Z" fill="#647A82"/>
<path d="M178.7 180.464C178.693 180.464 178.686 180.469 178.686 180.477L178.686 185.067L178.712 185.067L178.712 180.477C178.712 180.47 178.707 180.464 178.7 180.464Z" stroke="#7C9091" stroke-opacity="0.3" stroke-width="0.247323"/>
<path d="M181.879 179.117C181.879 179.254 181.768 179.365 181.632 179.365V179.365C181.495 179.365 181.384 179.254 181.384 179.117L181.384 176.747L181.879 176.747L181.879 179.117Z" fill="#647A82"/>
<path d="M181.632 179.13C181.625 179.13 181.618 179.125 181.618 179.118L181.618 176.981L181.645 176.981L181.645 179.118C181.644 179.125 181.639 179.13 181.632 179.13Z" stroke="#7C9091" stroke-opacity="0.3" stroke-width="0.247323"/>
<path d="M178.947 179.117C178.947 179.254 178.836 179.365 178.699 179.365V179.365C178.563 179.365 178.452 179.254 178.452 179.117L178.452 176.747L178.947 176.747L178.947 179.117Z" fill="#647A82"/>
<path d="M178.7 179.13C178.693 179.13 178.686 179.125 178.686 179.118L178.686 176.981L178.712 176.981L178.712 179.118C178.712 179.125 178.707 179.13 178.7 179.13Z" stroke="#7C9091" stroke-opacity="0.3" stroke-width="0.247323"/>
<path d="M159.199 187.424V187.424C158.324 187.424 157.614 186.714 157.614 185.838L157.614 174.561C157.614 173.344 158.6 172.358 159.817 172.358L184.658 172.358" stroke="#354853" stroke-width="1.275" stroke-linecap="round" stroke-linejoin="round"/>
<path d="M178.453 192.454C179.261 192.454 179.909 193.101 179.91 193.889C179.91 194.677 179.261 195.323 178.453 195.323C177.644 195.323 176.995 194.677 176.995 193.889C176.995 193.1 177.644 192.454 178.453 192.454Z" fill="#88999A" stroke="#40565F" stroke-width="0.6375"/>
<ellipse cx="178.452" cy="193.89" rx="0.523405" ry="0.516667" fill="#1A4B69"/>
<rect x="193" y="53" width="51" height="10" rx="3" fill="#D9D9D9" stroke="white" stroke-width="0.3"/>
<path d="M200.484 57.125C200.32 56.3438 199.648 55.9219 198.906 55.9219C197.883 55.9219 197.086 56.7109 197.086 58.1719C197.086 59.6328 197.883 60.4219 198.906 60.4219C199.648 60.4219 200.312 60 200.484 59.2266H201.188C200.984 60.3828 200.055 61.0781 198.906 61.0781C197.453 61.0781 196.406 59.9609 196.406 58.1719C196.406 56.3828 197.453 55.2656 198.906 55.2656C200.047 55.2656 200.977 55.9531 201.188 57.125H200.484ZM203.82 61.0859C202.664 61.0859 201.883 60.2188 201.883 58.8984C201.883 57.5781 202.664 56.7031 203.82 56.7031C204.969 56.7031 205.742 57.5781 205.742 58.8984C205.742 60.2188 204.969 61.0859 203.82 61.0859ZM203.82 60.4922C204.672 60.4922 205.07 59.7422 205.07 58.8984C205.07 58.0547 204.672 57.2969 203.82 57.2969C202.953 57.2969 202.555 58.0547 202.555 58.8984C202.555 59.7422 202.953 60.4922 203.82 60.4922ZM206.625 61V56.7578H207.273V57.4219H207.328C207.508 56.9688 207.914 56.7031 208.469 56.7031C209.023 56.7031 209.398 56.9688 209.602 57.4219H209.648C209.867 56.9844 210.312 56.7031 210.922 56.7031C211.68 56.7031 212.219 57.1641 212.219 58.1641V61H211.547V58.1719C211.547 57.5469 211.148 57.3047 210.688 57.3047C210.094 57.3047 209.758 57.7031 209.758 58.2422V61H209.078V58.1016C209.078 57.625 208.734 57.3047 208.25 57.3047C207.742 57.3047 207.297 57.7344 207.297 58.3516V61H206.625ZM213.297 62.5938V56.7578H213.945V57.4297H214.023C214.164 57.2031 214.43 56.7031 215.25 56.7031C216.312 56.7031 217.055 57.5469 217.055 58.8906C217.055 60.2344 216.312 61.0859 215.258 61.0859C214.445 61.0859 214.164 60.5859 214.023 60.3516H213.969V62.5938H213.297ZM213.953 58.875C213.953 59.8281 214.383 60.4844 215.164 60.4844C215.969 60.4844 216.383 59.7812 216.383 58.875C216.383 57.9922 215.977 57.3047 215.164 57.3047C214.367 57.3047 213.953 57.9375 213.953 58.875ZM217.93 61V56.7578H218.578V57.4062H218.625C218.781 56.9766 219.219 56.6875 219.719 56.6875C219.82 56.6875 219.992 56.6953 220.07 56.7031V57.3828C220.023 57.3672 219.836 57.3359 219.664 57.3359C219.055 57.3359 218.602 57.7578 218.602 58.3281V61H217.93ZM222.367 61.0859C221.141 61.0859 220.383 60.2188 220.383 58.9141C220.383 57.6094 221.148 56.7031 222.305 56.7031C223.195 56.7031 224.133 57.25 224.133 58.8203V59.1016H221.055C221.086 60 221.609 60.4922 222.367 60.4922C222.875 60.4922 223.195 60.2734 223.352 60.0078H224.07C223.867 60.6484 223.242 61.0859 222.367 61.0859ZM221.062 58.5312H223.453C223.453 57.8203 223 57.2969 222.305 57.2969C221.57 57.2969 221.102 57.875 221.062 58.5312ZM227.367 57.8594C227.273 57.5078 227.008 57.2734 226.508 57.2734C225.984 57.2734 225.609 57.5547 225.609 57.9141C225.609 58.1953 225.836 58.3906 226.336 58.5078L226.969 58.6641C227.727 58.8438 228.102 59.2188 228.102 59.8125C228.102 60.5469 227.5 61.0859 226.438 61.0859C225.484 61.0859 224.914 60.6641 224.805 59.8906H225.508C225.586 60.3047 225.891 60.5 226.422 60.5C227.023 60.5 227.406 60.25 227.406 59.8516C227.406 59.5547 227.195 59.3516 226.711 59.2422L226.07 59.0938C225.328 58.9219 224.938 58.5156 224.938 57.9531C224.938 57.2266 225.57 56.7031 226.508 56.7031C227.383 56.7031 227.938 57.1719 228.023 57.8594H227.367ZM231.336 57.8594C231.242 57.5078 230.977 57.2734 230.477 57.2734C229.953 57.2734 229.578 57.5547 229.578 57.9141C229.578 58.1953 229.805 58.3906 230.305 58.5078L230.938 58.6641C231.695 58.8438 232.07 59.2188 232.07 59.8125C232.07 60.5469 231.469 61.0859 230.406 61.0859C229.453 61.0859 228.883 60.6641 228.773 59.8906H229.477C229.555 60.3047 229.859 60.5 230.391 60.5C230.992 60.5 231.375 60.25 231.375 59.8516C231.375 59.5547 231.164 59.3516 230.68 59.2422L230.039 59.0938C229.297 58.9219 228.906 58.5156 228.906 57.9531C228.906 57.2266 229.539 56.7031 230.477 56.7031C231.352 56.7031 231.906 57.1719 231.992 57.8594H231.336ZM234.68 61.0859C233.523 61.0859 232.742 60.2188 232.742 58.8984C232.742 57.5781 233.523 56.7031 234.68 56.7031C235.828 56.7031 236.602 57.5781 236.602 58.8984C236.602 60.2188 235.828 61.0859 234.68 61.0859ZM234.68 60.4922C235.531 60.4922 235.93 59.7422 235.93 58.8984C235.93 58.0547 235.531 57.2969 234.68 57.2969C233.812 57.2969 233.414 58.0547 233.414 58.8984C233.414 59.7422 233.812 60.4922 234.68 60.4922ZM237.484 61V56.7578H238.133V57.4062H238.18C238.336 56.9766 238.773 56.6875 239.273 56.6875C239.375 56.6875 239.547 56.6953 239.625 56.7031V57.3828C239.578 57.3672 239.391 57.3359 239.219 57.3359C238.609 57.3359 238.156 57.7578 238.156 58.3281V61H237.484Z" fill="black"/>
<rect x="157" y="207" width="44" height="10" rx="3" fill="#D9D9D9" stroke="white" stroke-width="0.3"/>
<path d="M163.383 215H161.625V209.344H163.453C165.102 209.344 166.078 210.406 166.078 212.164C166.078 213.93 165.102 215 163.383 215ZM162.328 214.375H163.336C164.727 214.375 165.391 213.539 165.391 212.164C165.391 210.797 164.727 209.969 163.406 209.969H162.328V214.375ZM167.023 215V210.758H167.695V215H167.023ZM167.359 210.055C167.102 210.055 166.891 209.859 166.891 209.609C166.891 209.359 167.102 209.164 167.359 209.164C167.617 209.164 167.836 209.359 167.836 209.609C167.836 209.859 167.617 210.055 167.359 210.055ZM171.125 211.859C171.031 211.508 170.766 211.273 170.266 211.273C169.742 211.273 169.367 211.555 169.367 211.914C169.367 212.195 169.594 212.391 170.094 212.508L170.727 212.664C171.484 212.844 171.859 213.219 171.859 213.812C171.859 214.547 171.258 215.086 170.195 215.086C169.242 215.086 168.672 214.664 168.562 213.891H169.266C169.344 214.305 169.648 214.5 170.18 214.5C170.781 214.5 171.164 214.25 171.164 213.852C171.164 213.555 170.953 213.352 170.469 213.242L169.828 213.094C169.086 212.922 168.695 212.516 168.695 211.953C168.695 211.227 169.328 210.703 170.266 210.703C171.141 210.703 171.695 211.172 171.781 211.859H171.125ZM172.734 216.594V210.758H173.383V211.43H173.461C173.602 211.203 173.867 210.703 174.688 210.703C175.75 210.703 176.492 211.547 176.492 212.891C176.492 214.234 175.75 215.086 174.695 215.086C173.883 215.086 173.602 214.586 173.461 214.352H173.406V216.594H172.734ZM173.391 212.875C173.391 213.828 173.82 214.484 174.602 214.484C175.406 214.484 175.82 213.781 175.82 212.875C175.82 211.992 175.414 211.305 174.602 211.305C173.805 211.305 173.391 211.938 173.391 212.875ZM179.148 215.086C177.922 215.086 177.164 214.219 177.164 212.914C177.164 211.609 177.93 210.703 179.086 210.703C179.977 210.703 180.914 211.25 180.914 212.82V213.102H177.836C177.867 214 178.391 214.492 179.148 214.492C179.656 214.492 179.977 214.273 180.133 214.008H180.852C180.648 214.648 180.023 215.086 179.148 215.086ZM177.844 212.531H180.234C180.234 211.82 179.781 211.297 179.086 211.297C178.352 211.297 177.883 211.875 177.844 212.531ZM182.461 212.453V215H181.789V210.758H182.438V211.422H182.492C182.695 210.992 183.086 210.703 183.734 210.703C184.594 210.703 185.164 211.227 185.164 212.305V215H184.492V212.352C184.492 211.695 184.133 211.305 183.531 211.305C182.914 211.305 182.461 211.719 182.461 212.453ZM188.602 211.859C188.508 211.508 188.242 211.273 187.742 211.273C187.219 211.273 186.844 211.555 186.844 211.914C186.844 212.195 187.07 212.391 187.57 212.508L188.203 212.664C188.961 212.844 189.336 213.219 189.336 213.812C189.336 214.547 188.734 215.086 187.672 215.086C186.719 215.086 186.148 214.664 186.039 213.891H186.742C186.82 214.305 187.125 214.5 187.656 214.5C188.258 214.5 188.641 214.25 188.641 213.852C188.641 213.555 188.43 213.352 187.945 213.242L187.305 213.094C186.562 212.922 186.172 212.516 186.172 211.953C186.172 211.227 186.805 210.703 187.742 210.703C188.617 210.703 189.172 211.172 189.258 211.859H188.602ZM191.992 215.086C190.766 215.086 190.008 214.219 190.008 212.914C190.008 211.609 190.773 210.703 191.93 210.703C192.82 210.703 193.758 211.25 193.758 212.82V213.102H190.68C190.711 214 191.234 214.492 191.992 214.492C192.5 214.492 192.82 214.273 192.977 214.008H193.695C193.492 214.648 192.867 215.086 191.992 215.086ZM190.688 212.531H193.078C193.078 211.82 192.625 211.297 191.93 211.297C191.195 211.297 190.727 211.875 190.688 212.531ZM194.633 215V210.758H195.281V211.406H195.328C195.484 210.977 195.922 210.688 196.422 210.688C196.523 210.688 196.695 210.695 196.773 210.703V211.383C196.727 211.367 196.539 211.336 196.367 211.336C195.758 211.336 195.305 211.758 195.305 212.328V215H194.633Z" fill="black"/>
<rect x="90" y="134" width="51" height="10" rx="3" fill="#D9D9D9" stroke="white" stroke-width="0.3"/>
<path d="M94.3125 136.969V136.344H98.5781V136.969H96.8047V142H96.0938V136.969H94.3125ZM101.531 140.258V137.758H102.195V142H101.531V141.281H101.484C101.281 141.711 100.867 142.055 100.227 142.055C99.4219 142.055 98.8516 141.531 98.8516 140.453V137.758H99.5234V140.406C99.5234 141.016 99.9062 141.406 100.445 141.406C100.922 141.406 101.531 141.047 101.531 140.258ZM103.359 142V136.344H104.031V138.43H104.086C104.234 138.203 104.484 137.703 105.312 137.703C106.375 137.703 107.125 138.547 107.125 139.891C107.125 141.234 106.375 142.086 105.32 142.086C104.508 142.086 104.234 141.586 104.086 141.352H104.008V142H103.359ZM104.016 139.875C104.016 140.828 104.445 141.484 105.219 141.484C106.023 141.484 106.445 140.781 106.445 139.875C106.445 138.992 106.039 138.305 105.219 138.305C104.438 138.305 104.016 138.938 104.016 139.875ZM109.781 142.086C108.555 142.086 107.797 141.219 107.797 139.914C107.797 138.609 108.562 137.703 109.719 137.703C110.609 137.703 111.547 138.25 111.547 139.82V140.102H108.469C108.5 141 109.023 141.492 109.781 141.492C110.289 141.492 110.609 141.273 110.766 141.008H111.484C111.281 141.648 110.656 142.086 109.781 142.086ZM108.477 139.531H110.867C110.867 138.82 110.414 138.297 109.719 138.297C108.984 138.297 108.516 138.875 108.477 139.531ZM114.203 136.969V136.344H118.469V136.969H116.695V142H115.984V136.969H114.203ZM118.875 142V137.758H119.523V138.406H119.57C119.727 137.977 120.164 137.688 120.664 137.688C120.766 137.688 120.938 137.695 121.016 137.703V138.383C120.969 138.367 120.781 138.336 120.609 138.336C120 138.336 119.547 138.758 119.547 139.328V142H118.875ZM121.461 140.797C121.461 139.82 122.32 139.602 123.055 139.547C123.324 139.527 124.012 139.492 124.203 139.484V139.141C124.203 138.602 123.883 138.289 123.242 138.289C122.703 138.289 122.383 138.539 122.289 138.859H121.586C121.672 138.18 122.336 137.703 123.273 137.703C123.828 137.703 124.867 137.867 124.867 139.203V142H124.203V141.422H124.172C124.031 141.711 123.641 142.102 122.906 142.102C122.102 142.102 121.461 141.625 121.461 140.797ZM122.133 140.828C122.133 141.273 122.508 141.5 123.023 141.5C123.781 141.5 124.203 140.992 124.203 140.461V140.031L123.133 140.109C122.523 140.148 122.133 140.367 122.133 140.828ZM125.945 142V137.758H126.617V142H125.945ZM126.281 137.055C126.023 137.055 125.812 136.859 125.812 136.609C125.812 136.359 126.023 136.164 126.281 136.164C126.539 136.164 126.758 136.359 126.758 136.609C126.758 136.859 126.539 137.055 126.281 137.055ZM128.359 136.344V142H127.688V136.344H128.359ZM131.211 142.086C129.984 142.086 129.227 141.219 129.227 139.914C129.227 138.609 129.992 137.703 131.148 137.703C132.039 137.703 132.977 138.25 132.977 139.82V140.102H129.898C129.93 141 130.453 141.492 131.211 141.492C131.719 141.492 132.039 141.273 132.195 141.008H132.914C132.711 141.648 132.086 142.086 131.211 142.086ZM129.906 139.531H132.297C132.297 138.82 131.844 138.297 131.148 138.297C130.414 138.297 129.945 138.875 129.906 139.531ZM133.852 142V137.758H134.5V138.406H134.547C134.703 137.977 135.141 137.688 135.641 137.688C135.742 137.688 135.914 137.695 135.992 137.703V138.383C135.945 138.367 135.758 138.336 135.586 138.336C134.977 138.336 134.523 138.758 134.523 139.328V142H133.852Z" fill="black"/>
<rect x="65" y="15" width="30" height="10" rx="3" fill="#D9D9D9" stroke="white" stroke-width="0.3"/>
<path d="M71.3125 17.9688V17.3438H75.5781V17.9688H73.8047V23H73.0938V17.9688H71.3125ZM75.6484 21.7969C75.6484 20.8203 76.5078 20.6016 77.2422 20.5469C77.5117 20.5273 78.1992 20.4922 78.3906 20.4844V20.1406C78.3906 19.6016 78.0703 19.2891 77.4297 19.2891C76.8906 19.2891 76.5703 19.5391 76.4766 19.8594H75.7734C75.8594 19.1797 76.5234 18.7031 77.4609 18.7031C78.0156 18.7031 79.0547 18.8672 79.0547 20.2031V23H78.3906V22.4219H78.3594C78.2188 22.7109 77.8281 23.1016 77.0938 23.1016C76.2891 23.1016 75.6484 22.625 75.6484 21.7969ZM76.3203 21.8281C76.3203 22.2734 76.6953 22.5 77.2109 22.5C77.9688 22.5 78.3906 21.9922 78.3906 21.4609V21.0312L77.3203 21.1094C76.7109 21.1484 76.3203 21.3672 76.3203 21.8281ZM80.8047 20.4531V23H80.1328V18.7578H80.7812V19.4219H80.8359C81.0391 18.9922 81.4297 18.7031 82.0781 18.7031C82.9375 18.7031 83.5078 19.2266 83.5078 20.3047V23H82.8359V20.3516C82.8359 19.6953 82.4766 19.3047 81.875 19.3047C81.2578 19.3047 80.8047 19.7188 80.8047 20.4531ZM84.5859 23V17.3438H85.2578V20.6328H85.3359L87.1719 18.7578H88L86.2109 20.5703L88.1328 23H87.2812L85.7109 21L85.2578 21.4141V23H84.5859Z" fill="black"/>
<defs>
<filter id="filter0_d_3278_2937" x="131" y="161" width="112" height="62" filterUnits="userSpaceOnUse" color-interpolation-filters="sRGB">
<feFlood flood-opacity="0" result="BackgroundImageFix"/>
<feColorMatrix in="SourceAlpha" type="matrix" values="0 0 0 0 0 0 0 0 0 0 0 0 0 0 0 0 0 0 127 0" result="hardAlpha"/>
<feOffset dy="4"/>
<feGaussianBlur stdDeviation="2"/>
<feComposite in2="hardAlpha" operator="out"/>
<feColorMatrix type="matrix" values="0 0 0 0 0 0 0 0 0 0 0 0 0 0 0 0 0 0 0.25 0"/>
<feBlend mode="normal" in2="BackgroundImageFix" result="effect1_dropShadow_3278_2937"/>
<feBlend mode="normal" in="SourceGraphic" in2="effect1_dropShadow_3278_2937" result="shape"/>
</filter>
<filter id="filter1_d_3278_2937" x="2" y="4" width="283" height="161" filterUnits="userSpaceOnUse" color-interpolation-filters="sRGB">
<feFlood flood-opacity="0" result="BackgroundImageFix"/>
<feColorMatrix in="SourceAlpha" type="matrix" values="0 0 0 0 0 0 0 0 0 0 0 0 0 0 0 0 0 0 127 0" result="hardAlpha"/>
<feOffset dy="4"/>
<feGaussianBlur stdDeviation="2"/>
<feComposite in2="hardAlpha" operator="out"/>
<feColorMatrix type="matrix" values="0 0 0 0 0 0 0 0 0 0 0 0 0 0 0 0 0 0 0.25 0"/>
<feBlend mode="normal" in2="BackgroundImageFix" result="effect1_dropShadow_3278_2937"/>
<feBlend mode="normal" in="SourceGraphic" in2="effect1_dropShadow_3278_2937" result="shape"/>
</filter>
<filter id="filter2_d_3278_2937" x="43.1499" y="96.1499" width="148.7" height="53.7002" filterUnits="userSpaceOnUse" color-interpolation-filters="sRGB">
<feFlood flood-opacity="0" result="BackgroundImageFix"/>
<feColorMatrix in="SourceAlpha" type="matrix" values="0 0 0 0 0 0 0 0 0 0 0 0 0 0 0 0 0 0 127 0" result="hardAlpha"/>
<feOffset dy="4"/>
<feGaussianBlur stdDeviation="2"/>
<feComposite in2="hardAlpha" operator="out"/>
<feColorMatrix type="matrix" values="0 0 0 0 0 0 0 0 0 0 0 0 0 0 0 0 0 0 0.25 0"/>
<feBlend mode="normal" in2="BackgroundImageFix" result="effect1_dropShadow_3278_2937"/>
<feBlend mode="normal" in="SourceGraphic" in2="effect1_dropShadow_3278_2937" result="shape"/>
</filter>
<filter id="filter3_d_3278_2937" x="18.1499" y="19.1499" width="120.7" height="44.7002" filterUnits="userSpaceOnUse" color-interpolation-filters="sRGB">
<feFlood flood-opacity="0" result="BackgroundImageFix"/>
<feColorMatrix in="SourceAlpha" type="matrix" values="0 0 0 0 0 0 0 0 0 0 0 0 0 0 0 0 0 0 127 0" result="hardAlpha"/>
<feOffset dy="4"/>
<feGaussianBlur stdDeviation="2"/>
<feComposite in2="hardAlpha" operator="out"/>
<feColorMatrix type="matrix" values="0 0 0 0 0 0 0 0 0 0 0 0 0 0 0 0 0 0 0.25 0"/>
<feBlend mode="normal" in2="BackgroundImageFix" result="effect1_dropShadow_3278_2937"/>
<feBlend mode="normal" in="SourceGraphic" in2="effect1_dropShadow_3278_2937" result="shape"/>
</filter>
<filter id="filter4_d_3278_2937" x="190.447" y="25.9995" width="56.1055" height="32.0005" filterUnits="userSpaceOnUse" color-interpolation-filters="sRGB">
<feFlood flood-opacity="0" result="BackgroundImageFix"/>
<feColorMatrix in="SourceAlpha" type="matrix" values="0 0 0 0 0 0 0 0 0 0 0 0 0 0 0 0 0 0 127 0" result="hardAlpha"/>
<feOffset dy="4"/>
<feGaussianBlur stdDeviation="2"/>
<feComposite in2="hardAlpha" operator="out"/>
<feColorMatrix type="matrix" values="0 0 0 0 0 0 0 0 0 0 0 0 0 0 0 0 0 0 0.25 0"/>
<feBlend mode="normal" in2="BackgroundImageFix" result="effect1_dropShadow_3278_2937"/>
<feBlend mode="normal" in="SourceGraphic" in2="effect1_dropShadow_3278_2937" result="shape"/>
</filter>
<filter id="filter5_d_3278_2937" x="155.391" y="170.015" width="46.1211" height="38.5718" filterUnits="userSpaceOnUse" color-interpolation-filters="sRGB">
<feFlood flood-opacity="0" result="BackgroundImageFix"/>
<feColorMatrix in="SourceAlpha" type="matrix" values="0 0 0 0 0 0 0 0 0 0 0 0 0 0 0 0 0 0 127 0" result="hardAlpha"/>
<feOffset dy="4"/>
<feGaussianBlur stdDeviation="2"/>
<feComposite in2="hardAlpha" operator="out"/>
<feColorMatrix type="matrix" values="0 0 0 0 0 0 0 0 0 0 0 0 0 0 0 0 0 0 0.25 0"/>
<feBlend mode="normal" in2="BackgroundImageFix" result="effect1_dropShadow_3278_2937"/>
<feBlend mode="normal" in="SourceGraphic" in2="effect1_dropShadow_3278_2937" result="shape"/>
</filter>
<linearGradient id="paint0_linear_3278_2937" x1="183.6" y1="166.5" x2="191.434" y2="166.5" gradientUnits="userSpaceOnUse">
<stop stop-color="#36505D"/>
<stop offset="0.65" stop-color="#909EA5"/>
</linearGradient>
<linearGradient id="paint1_linear_3278_2937" x1="186.12" y1="175.991" x2="191.434" y2="175.991" gradientUnits="userSpaceOnUse">
<stop stop-color="#808E99"/>
<stop offset="0.65" stop-color="#BBCAD0"/>
</linearGradient>
<linearGradient id="paint2_linear_3278_2937" x1="183.6" y1="171.242" x2="191.434" y2="171.242" gradientUnits="userSpaceOnUse">
<stop stop-color="#6C7B89"/>
<stop offset="0.65" stop-color="#E6F4F9"/>
</linearGradient>
<linearGradient id="paint3_linear_3278_2937" x1="183.6" y1="186.375" x2="191.427" y2="186.375" gradientUnits="userSpaceOnUse">
<stop stop-color="#36505D"/>
<stop offset="0.65" stop-color="#909EA5"/>
</linearGradient>
<linearGradient id="paint4_linear_3278_2937" x1="186.118" y1="195.873" x2="191.427" y2="195.873" gradientUnits="userSpaceOnUse">
<stop stop-color="#808E99"/>
<stop offset="0.65" stop-color="#BBCAD0"/>
</linearGradient>
<linearGradient id="paint5_linear_3278_2937" x1="183.6" y1="191.116" x2="191.427" y2="191.116" gradientUnits="userSpaceOnUse">
<stop stop-color="#6C7B89"/>
<stop offset="0.65" stop-color="#E6F4F9"/>
</linearGradient>
<linearGradient id="paint6_linear_3278_2937" x1="429.566" y1="220.768" x2="429.566" y2="-73.1661" gradientUnits="userSpaceOnUse">
<stop stop-color="#D4DDE0"/>
<stop offset="1" stop-color="#CAD6DA"/>
</linearGradient>
<linearGradient id="paint7_linear_3278_2937" x1="130.6" y1="75.4999" x2="136.399" y2="75.4999" gradientUnits="userSpaceOnUse">
<stop stop-color="#36505D"/>
<stop offset="0.65" stop-color="#909EA5"/>
</linearGradient>
<linearGradient id="paint8_linear_3278_2937" x1="132.465" y1="82.5253" x2="136.399" y2="82.5253" gradientUnits="userSpaceOnUse">
<stop stop-color="#808E99"/>
<stop offset="0.65" stop-color="#BBCAD0"/>
</linearGradient>
<linearGradient id="paint9_linear_3278_2937" x1="130.6" y1="79.0102" x2="136.399" y2="79.0102" gradientUnits="userSpaceOnUse">
<stop stop-color="#6C7B89"/>
<stop offset="0.65" stop-color="#E6F4F9"/>
</linearGradient>
<linearGradient id="paint10_linear_3278_2937" x1="130.6" y1="90.8749" x2="136.394" y2="90.8749" gradientUnits="userSpaceOnUse">
<stop stop-color="#36505D"/>
<stop offset="0.65" stop-color="#909EA5"/>
</linearGradient>
<linearGradient id="paint11_linear_3278_2937" x1="132.464" y1="97.9057" x2="136.394" y2="97.9057" gradientUnits="userSpaceOnUse">
<stop stop-color="#808E99"/>
<stop offset="0.65" stop-color="#BBCAD0"/>
</linearGradient>
<linearGradient id="paint12_linear_3278_2937" x1="130.6" y1="94.3847" x2="136.394" y2="94.3847" gradientUnits="userSpaceOnUse">
<stop stop-color="#6C7B89"/>
<stop offset="0.65" stop-color="#E6F4F9"/>
</linearGradient>
<linearGradient id="paint13_linear_3278_2937" x1="202.178" y1="37.9995" x2="211.511" y2="37.9995" gradientUnits="userSpaceOnUse">
<stop stop-color="#39464A"/>
<stop offset="0.5" stop-color="#DCE8E8"/>
<stop offset="0.82" stop-color="#ADB8BD"/>
</linearGradient>
<linearGradient id="paint14_linear_3278_2937" x1="225.397" y1="37.9995" x2="234.73" y2="37.9995" gradientUnits="userSpaceOnUse">
<stop stop-color="#39464A"/>
<stop offset="0.5" stop-color="#DCE8E8"/>
<stop offset="0.82" stop-color="#ADB8BD"/>
</linearGradient>
<linearGradient id="paint15_linear_3278_2937" x1="217.494" y1="27.0507" x2="220.336" y2="48.7253" gradientUnits="userSpaceOnUse">
<stop offset="0.06" stop-color="#526266"/>
<stop offset="0.226858" stop-color="#AFBDC2"/>
<stop offset="0.406434" stop-color="#E6F4F9"/>
<stop offset="0.706708" stop-color="#95A2A7"/>
<stop offset="1" stop-color="#293539"/>
</linearGradient>
<linearGradient id="paint16_linear_3278_2937" x1="228.084" y1="189.076" x2="197.512" y2="189.076" gradientUnits="userSpaceOnUse">
<stop stop-color="#B0C2C6"/>
<stop offset="0.132134" stop-color="#94A4A8"/>
<stop offset="0.449304" stop-color="#D9E4E6"/>
<stop offset="1" stop-color="#EBF5F6"/>
</linearGradient>
</defs>
</svg>
