<svg width="62" height="62" viewBox="0 0 62 62" fill="none" xmlns="http://www.w3.org/2000/svg">
<g filter="url(#filter0_d_3236_1123)">
<rect x="17" y="12" width="24" height="24" rx="12" fill="#22C576"/>
<path d="M28.5 18.1665C30.5309 18.1666 32.2235 19.6908 32.6094 21.7144C32.7543 21.6979 32.9037 21.688 33.0576 21.688C35.1883 21.6881 36.9158 23.5114 36.916 25.7603C36.916 28.0093 35.1884 29.8334 33.0576 29.8335H24.3066C26.2791 28.9589 27.6824 27.5574 28.6436 25.7036C27.57 26.8957 25.3933 28.1968 23.7705 28.146C22.2869 28.146 21.084 26.876 21.084 25.3101C21.0841 23.7442 22.2869 22.4751 23.7705 22.4751C23.9491 22.4751 24.1287 22.4827 24.3086 22.4956C24.3573 20.0959 26.2148 18.1665 28.5 18.1665Z" fill="white"/>
</g>
<defs>
<filter id="filter0_d_3236_1123" x="0.666667" y="0.333334" width="61.3333" height="61.3333" filterUnits="userSpaceOnUse" color-interpolation-filters="sRGB">
<feFlood flood-opacity="0" result="BackgroundImageFix"/>
<feColorMatrix in="SourceAlpha" type="matrix" values="0 0 0 0 0 0 0 0 0 0 0 0 0 0 0 0 0 0 127 0" result="hardAlpha"/>
<feOffset dx="2.33333" dy="7"/>
<feGaussianBlur stdDeviation="9.33333"/>
<feComposite in2="hardAlpha" operator="out"/>
<feColorMatrix type="matrix" values="0 0 0 0 0 0 0 0 0 0 0 0 0 0 0 0 0 0 0.2 0"/>
<feBlend mode="normal" in2="BackgroundImageFix" result="effect1_dropShadow_3236_1123"/>
<feBlend mode="normal" in="SourceGraphic" in2="effect1_dropShadow_3236_1123" result="shape"/>
</filter>
</defs>
</svg>
