<svg width="62" height="62" viewBox="0 0 62 62" fill="none" xmlns="http://www.w3.org/2000/svg">
<g filter="url(#filter0_d_3236_2731)">
<rect x="17" y="12" width="24" height="24" rx="12" fill="#F2C035"/>
<path d="M21.9165 21.3592V22.7024C23.1999 21.7042 24.3725 22.0984 26.5756 22.303C28.4215 22.4744 28.9205 21.4125 28.956 20.5605L29.0352 18.1103C28.729 20.4185 26.3882 19.5988 24.2118 19.4775C22.295 19.3707 21.9165 20.7668 21.9165 21.3592Z" fill="white"/>
<path d="M36.0832 17.0097V15.6665C34.7998 16.6646 33.6272 16.2704 31.4241 16.0659C29.5782 15.8944 29.0792 16.9563 29.0437 17.8083L28.9645 20.2586C29.2707 17.9504 31.6115 18.7701 33.7879 18.8914C35.7046 18.9982 36.0832 17.6021 36.0832 17.0097Z" fill="white"/>
<path d="M21.9165 26.1751V27.5183C23.1999 26.5202 24.3725 26.9143 26.5756 27.1189C28.4215 27.2903 28.9205 26.2284 28.956 25.3764L29.0352 22.9262C28.729 25.2344 26.3882 24.4147 24.2118 24.2934C22.295 24.1866 21.9165 25.5827 21.9165 26.1751Z" fill="white"/>
<path d="M36.0832 21.8256V20.4824C34.7998 21.4805 33.6272 21.0864 31.4241 20.8818C29.5782 20.7103 29.0792 21.7723 29.0437 22.6243L28.9645 25.0745C29.2707 22.7663 31.6115 23.586 33.7879 23.7073C35.7046 23.8141 36.0832 22.418 36.0832 21.8256Z" fill="white"/>
<path d="M21.9165 30.9905V32.3337C23.1999 31.3356 24.3725 31.7298 26.5756 31.9343C28.4215 32.1058 28.9205 31.0439 28.956 30.1919L29.0352 27.7417C28.729 30.0498 26.3882 29.2301 24.2118 29.1088C22.295 29.002 21.9165 30.3981 21.9165 30.9905Z" fill="white"/>
<path d="M36.0832 26.641V25.2979C34.7998 26.296 33.6272 25.9018 31.4241 25.6972C29.5782 25.5258 29.0792 26.5877 29.0437 27.4397L28.9645 29.8899C29.2707 27.5817 31.6115 28.4014 33.7879 28.5227C35.7046 28.6295 36.0832 27.2334 36.0832 26.641Z" fill="white"/>
</g>
<defs>
<filter id="filter0_d_3236_2731" x="0.666667" y="0.333334" width="61.3333" height="61.3333" filterUnits="userSpaceOnUse" color-interpolation-filters="sRGB">
<feFlood flood-opacity="0" result="BackgroundImageFix"/>
<feColorMatrix in="SourceAlpha" type="matrix" values="0 0 0 0 0 0 0 0 0 0 0 0 0 0 0 0 0 0 127 0" result="hardAlpha"/>
<feOffset dx="2.33333" dy="7"/>
<feGaussianBlur stdDeviation="9.33333"/>
<feComposite in2="hardAlpha" operator="out"/>
<feColorMatrix type="matrix" values="0 0 0 0 0 0 0 0 0 0 0 0 0 0 0 0 0 0 0.2 0"/>
<feBlend mode="normal" in2="BackgroundImageFix" result="effect1_dropShadow_3236_2731"/>
<feBlend mode="normal" in="SourceGraphic" in2="effect1_dropShadow_3236_2731" result="shape"/>
</filter>
</defs>
</svg>
