<svg width="68" height="68" viewBox="0 0 68 68" fill="none" xmlns="http://www.w3.org/2000/svg">
<g filter="url(#filter0_d_3279_3255)">
<rect x="17" y="12" width="30" height="30" rx="15" fill="white"/>
</g>
<path d="M32 18C27 18 23 22 23 27C23 32 27 36 32 36C37 36 41 32 41 27C41 22 37 18 32 18ZM32 34C28.1 34 25 30.9 25 27C25 23.1 28.1 20 32 20C35.9 20 39 23.1 39 27C39 30.9 35.9 34 32 34ZM40.5 35.5C42.7 33.3 44 30.3 44 27C44 23.7 42.7 20.7 40.5 18.5L39.4 19.6C41.3 21.5 42.5 24.1 42.5 27C42.5 29.9 41.3 32.5 39.4 34.4L40.5 35.5ZM24.6 34.4C22.7 32.5 21.5 29.9 21.5 27C21.5 24.1 22.7 21.5 24.6 19.6L23.5 18.5C21.3 20.7 20 23.7 20 27C20 30.3 21.3 33.3 23.5 35.5L24.6 34.4ZM29.5 22V32H31.5V28H33.5C34.0304 28 34.5391 27.7893 34.9142 27.4142C35.2893 27.0391 35.5 26.5304 35.5 26V24C35.5 23.4696 35.2893 22.9609 34.9142 22.5858C34.5391 22.2107 34.0304 22 33.5 22H29.5ZM31.5 24H33.5V26H31.5V24Z" fill="#338BF7"/>
<defs>
<filter id="filter0_d_3279_3255" x="0.666667" y="0.333334" width="67.3333" height="67.3333" filterUnits="userSpaceOnUse" color-interpolation-filters="sRGB">
<feFlood flood-opacity="0" result="BackgroundImageFix"/>
<feColorMatrix in="SourceAlpha" type="matrix" values="0 0 0 0 0 0 0 0 0 0 0 0 0 0 0 0 0 0 127 0" result="hardAlpha"/>
<feOffset dx="2.33333" dy="7"/>
<feGaussianBlur stdDeviation="9.33333"/>
<feComposite in2="hardAlpha" operator="out"/>
<feColorMatrix type="matrix" values="0 0 0 0 0 0 0 0 0 0 0 0 0 0 0 0 0 0 0.2 0"/>
<feBlend mode="normal" in2="BackgroundImageFix" result="effect1_dropShadow_3279_3255"/>
<feBlend mode="normal" in="SourceGraphic" in2="effect1_dropShadow_3279_3255" result="shape"/>
</filter>
</defs>
</svg>
