<svg width="30" height="30" viewBox="0 0 30 30" fill="none" xmlns="http://www.w3.org/2000/svg">
<circle cx="15" cy="15" r="15" fill="white"/>
<path d="M16.7422 4.64197C18.8028 4.98636 20.6596 5.92957 22.1279 7.28845C21.5349 7.56863 21.124 8.17108 21.124 8.87048C21.1241 9.83694 21.9076 10.6205 22.874 10.6205C23.4187 10.6205 23.9046 10.371 24.2256 9.98083C24.9056 11.2294 25.3361 12.6313 25.459 14.1215C24.511 14.1427 23.749 14.9174 23.749 15.8705C23.7491 16.7261 24.3633 17.4371 25.1748 17.5892C24.8462 18.8823 24.2759 20.0779 23.5176 21.1293C23.2161 20.6019 22.65 20.2455 21.999 20.2455C21.0325 20.2455 20.249 21.029 20.249 21.9955C20.2491 22.6466 20.6052 23.2136 21.1328 23.515C19.8546 24.4369 18.3617 25.0773 16.7422 25.348C16.6673 24.4506 15.9168 23.7455 15 23.7455C14.0832 23.7455 13.3317 24.4505 13.2568 25.348C11.6367 25.0774 10.1429 24.4373 8.86426 23.515C9.39224 23.2137 9.74899 22.6469 9.74902 21.9955C9.74901 21.029 8.96551 20.2455 7.99902 20.2455C7.34788 20.2455 6.78089 20.6017 6.47949 21.1293C5.72124 20.078 5.15083 18.8822 4.82227 17.5892C5.63419 17.4375 6.24898 16.7264 6.24902 15.8705C6.24901 14.9171 5.48653 14.1422 4.53809 14.1215C4.6609 12.6315 5.09157 11.2293 5.77148 9.98083C6.09244 10.3713 6.57912 10.6205 7.12402 10.6205C8.09049 10.6205 8.87398 9.83694 8.87402 8.87048C8.87401 8.17077 8.4626 7.56847 7.86914 7.28845C9.33781 5.9291 11.1956 4.98627 13.2568 4.64197C13.3313 5.53985 14.0829 6.24548 15 6.24548C15.9171 6.24548 16.6677 5.53981 16.7422 4.64197ZM15 8.00037C11.134 8.00037 8 11.1344 8 15.0004C8.0002 18.8662 11.1341 22.0004 15 22.0004C18.8659 22.0004 21.9998 18.8662 22 15.0004C22 11.1344 18.866 8.00037 15 8.00037Z" fill="#338BF7"/>
</svg>
